<svg width="602" height="451.5" viewBox="0 0 602 521" fill="none" xmlns="http://www.w3.org/2000/svg">
<path d="M470.243 316.271C470.243 353.228 460.224 389.492 441.254 421.201C422.284 452.909 395.073 478.873 362.521 496.327C329.969 513.78 293.295 522.069 256.407 520.31C219.519 518.551 183.799 506.811 153.053 486.339C122.306 465.868 97.6853 437.432 81.8135 404.063C65.9417 370.693 59.4136 333.639 62.9246 296.85C66.4357 260.06 79.8544 224.913 101.751 195.154C123.648 165.394 153.202 142.136 187.265 127.859L266.122 316.271H470.243Z" fill="#32334C"/>
<path fill-rule="evenodd" clip-rule="evenodd" d="M263.114 267.777C273.081 261.353 283.048 254.929 293.086 248.617C293.977 248.055 294.675 249.495 293.823 250.063L293.632 250.189C289.999 252.608 286.371 255.023 282.718 257.407C269.645 265.926 256.574 274.446 243.503 282.969C243.111 283.158 242.645 283.098 242.314 282.815C241.984 282.532 241.852 282.081 241.979 281.664C242.94 279.584 243.887 277.496 244.835 275.408C245.902 273.056 246.97 270.703 248.057 268.36C254.895 253.637 261.732 238.914 268.569 224.191C269.593 223.752 270.62 223.315 271.648 222.882L269.878 221.372C269.441 222.312 269.005 223.251 268.569 224.191C266.082 225.258 263.603 226.343 261.134 227.446C248.862 232.939 236.831 238.9 225.041 245.33C224.496 245.588 223.846 245.459 223.442 245.013C223.037 244.566 222.973 243.907 223.284 243.391L229.614 231.867C236.498 219.421 243.381 206.977 250.265 194.535C251.35 194.178 252.436 193.827 253.525 193.481L252.043 191.321C251.45 192.392 250.858 193.464 250.265 194.535C247.979 195.287 245.701 196.063 243.431 196.864C231.709 201.013 220.211 205.769 208.983 211.11C208.386 211.394 207.674 211.254 207.231 210.765C206.788 210.276 206.718 209.554 207.059 208.988C213.236 198.752 219.411 188.515 225.584 178.277C226.992 177.758 228.393 177.22 229.787 176.663L227.849 174.52C227.094 175.772 226.339 177.025 225.584 178.277C218.432 180.914 211.106 183.061 203.659 184.702C203.067 184.81 202.467 184.56 202.127 184.064C201.787 183.568 201.77 182.919 202.084 182.406C206.097 177.404 209.536 171.971 212.34 166.21C213.089 166.248 213.838 166.286 214.587 166.325L213.226 164.332C212.938 164.961 212.643 165.587 212.34 166.21C209.202 166.049 206.063 165.89 202.925 165.732L200.132 165.595C199.343 165.641 198.552 165.586 197.777 165.433C196.957 164.938 196.271 164.251 195.777 163.431L194.238 161.592C192.126 159.052 190.072 156.465 188.074 153.832C185.492 150.419 182.999 146.946 180.595 143.413C180.654 144.149 180.71 144.885 180.765 145.621C180.808 146.188 180.85 146.755 180.895 147.322C180.91 147.532 180.924 147.743 180.938 147.954C180.968 148.405 180.997 148.857 181.045 149.307C181.198 150.038 181.114 150.792 180.808 151.454C180.609 151.763 180.263 151.938 179.895 151.913C179.528 151.888 179.194 151.667 179.017 151.332C178.67 150.644 178.519 149.876 178.58 149.117L178.454 147.134C178.428 146.714 178.401 146.294 178.374 145.873C178.309 144.861 178.244 143.849 178.187 142.836L177.998 139.518C177.498 138.753 177.002 137.985 176.511 137.215C176.29 136.77 176.286 136.249 176.502 135.801C176.717 135.353 177.127 135.03 177.613 134.925C177.706 134.905 177.799 134.885 177.892 134.866C177.907 134.666 177.925 134.465 177.945 134.265L177.951 134.27C177.947 134.34 177.951 134.413 177.965 134.486C177.977 134.607 177.983 134.728 177.983 134.849C178.154 134.815 178.326 134.784 178.497 134.756L177.951 134.27C177.973 133.901 178.231 133.586 178.6 133.514C179.04 133.429 179.478 133.72 179.588 134.17C179.623 134.314 179.656 134.458 179.688 134.602C182.912 134.299 186.172 134.894 189.096 136.344C189.839 136.828 190.055 137.819 189.581 138.569C189.084 139.295 188.108 139.508 187.353 139.056C185.243 138.058 182.928 137.607 180.621 137.728C180.436 137.443 180.251 137.158 180.068 136.873C180.101 137.168 180.129 137.464 180.15 137.761C180.307 137.747 180.464 137.736 180.621 137.728C186.226 146.357 192.358 154.632 198.983 162.507C198.768 162.495 198.552 162.484 198.336 162.472L199.369 162.963C199.24 162.811 199.112 162.659 198.983 162.507C203.242 162.734 207.503 162.935 211.764 163.137C212.765 163.185 213.765 163.232 214.765 163.28C215.235 163.312 215.664 163.557 215.93 163.946C216.195 164.335 216.268 164.824 216.126 165.273C213.657 170.75 210.632 175.955 207.099 180.807C205.754 181.135 204.405 181.446 203.052 181.74L204.628 184.039C205.477 182.98 206.301 181.903 207.099 180.807C214.356 179.035 221.483 176.759 228.428 173.997C229.03 173.714 229.745 173.857 230.191 174.349C230.637 174.842 230.709 175.567 230.368 176.138C224.274 186.226 218.178 196.315 212.083 206.406C210.595 207.081 209.112 207.767 207.635 208.466L209.556 210.589C210.398 209.195 211.241 207.8 212.083 206.406C213.844 205.607 215.613 204.824 217.388 204.053C229.01 199.002 240.88 194.543 252.954 190.695C253.51 190.599 254.071 190.836 254.389 191.301C254.708 191.766 254.727 192.374 254.437 192.858C252.313 196.691 250.189 200.522 248.063 204.352C241.348 216.501 234.611 228.637 227.851 240.762C226.501 241.474 225.154 242.191 223.81 242.915L225.569 244.853C226.33 243.489 227.091 242.126 227.851 240.762C229.882 239.691 231.919 238.634 233.964 237.59C245.936 231.476 258.117 225.826 270.505 220.64C271.393 220.265 272.783 221.064 272.274 222.147L266.075 235.414C259.243 249.965 252.412 264.514 245.579 279.063C244.558 279.72 243.537 280.376 242.516 281.032L244.043 282.334C244.555 281.244 245.067 280.154 245.579 279.063C248.286 277.324 250.993 275.583 253.7 273.84C256.839 271.822 259.977 269.8 263.114 267.777Z" fill="#8082A5"/>
<path fill-rule="evenodd" clip-rule="evenodd" d="M601.811 174.021V395.516C601.811 399.83 601.811 401.987 600.972 403.635C600.233 405.084 599.055 406.262 597.606 407.001C595.958 407.84 593.801 407.84 589.487 407.84H298.325C294.011 407.84 291.854 407.84 290.206 407.001C288.757 406.262 287.579 405.084 286.84 403.635C286 401.987 286 399.83 286 395.516V174.021C286 86.7483 356.697 16 443.906 16C531.115 16 601.811 86.7483 601.811 174.021Z" fill="#F7CC47"/>
<rect y="322" width="274.73" height="143.889" rx="7.7027" fill="white"/>
<circle cx="56" cy="366" r="20" fill="#EF6D58"/>
<circle cx="56" cy="421" r="20" fill="#391400"/>
<rect x="107" y="357" width="141" height="18" rx="2.56757" fill="#DFE0E9"/>
<rect x="107" y="380" width="7" height="63" rx="3.5" fill="#DFE0E9"/>
<rect x="128.378" y="399.083" width="7.7027" height="43.6806" rx="3.85135" fill="#DFE0E9"/>
<rect x="151.487" y="393.944" width="7.7027" height="48.8194" rx="3.85135" fill="#DFE0E9"/>
<rect x="173.311" y="402.938" width="7.7027" height="39.8264" rx="3.85135" fill="#DFE0E9"/>
<rect x="195.135" y="410.646" width="7.7027" height="32.1181" rx="3.85135" fill="#DFE0E9"/>
<rect x="218.243" y="405.507" width="7.7027" height="37.2569" rx="3.85135" fill="#DFE0E9"/>
<rect x="240.068" y="415.785" width="7.7027" height="26.9792" rx="3.85135" fill="#DFE0E9"/>
<path d="M142.975 160.162L110.759 198.668L122.691 149.887L76.2824 169L109.501 131.356L59.5324 126.697L106.427 108.813L64.3461 81.4494L114.174 87.423L89.6205 43.6234L130.967 72.086L129.566 21.8843L152.959 66.3156L175.031 21.2123L175.111 71.4336L215.6 41.7614L192.349 86.2676L241.98 78.824L200.724 107.419L248.127 123.91L198.318 130.043L232.632 166.689L185.68 148.956L199.047 197.363L165.708 159.826L155.063 208.904L142.975 160.162Z" fill="#EF6D58"/>
<path d="M214.405 42.3237L159.604 94.9648C153.748 94.9648 149 100.539 149 107.415C149 114.292 153.748 119.866 159.604 119.866C165.46 119.866 170.208 114.292 170.208 107.415L215.041 43.0707L215.317 42L214.405 42.3237Z" fill="white"/>
</svg>
