<svg width="56" height="70" viewBox="0 0 56 70" fill="none" xmlns="http://www.w3.org/2000/svg">
<path d="M0 12L5.08958 57.9411L27.9271 64L50.9104 57.9411L56 12H0Z" fill="#EF587A"/>
<path d="M24.0654 43.917L23.8701 48.8975C23.8701 49.7926 24.0817 51.1191 24.5049 52.877C24.9443 54.6185 25.1641 55.9043 25.1641 56.7344C25.1641 57.5807 25.3024 58.7607 25.5791 60.2744C25.8558 61.7881 25.9941 63.0007 25.9941 63.9121C25.9941 64.8398 25.5954 65.3037 24.7979 65.3037C24.0166 65.3037 23.626 64.848 23.626 63.9365C23.626 63.0413 23.7643 61.8369 24.041 60.3232C24.334 58.8258 24.4805 57.7028 24.4805 56.9541C24.4805 56.2054 24.2201 55.5218 23.6992 54.9033C23.1784 54.3011 22.5599 54 21.8438 54C20.2161 54 19.4023 55.9775 19.4023 59.9326C19.4023 60.8604 19.5244 62.252 19.7686 64.1074C20.0127 65.9629 20.1348 67.2324 20.1348 67.916C20.1348 69.2507 19.736 69.918 18.9385 69.918C18.5316 69.918 18.2142 69.7389 17.9863 69.3809C17.7747 69.0391 17.6689 68.5426 17.6689 67.8916C17.6689 67.2406 17.8073 66.0524 18.084 64.3271C18.377 62.6019 18.5234 61.3486 18.5234 60.5674C18.5234 59.7861 18.4746 59.0456 18.377 58.3457C18.2956 57.6621 18.1328 56.9215 17.8887 56.124C17.6608 55.3428 17.2865 54.708 16.7656 54.2197C16.2611 53.7314 15.6019 53.4873 14.7881 53.4873C13.9906 53.4873 13.2663 53.8372 12.6152 54.5371C11.9805 55.237 11.6631 55.8962 11.6631 56.5146C11.6631 57.1494 11.777 57.8086 12.0049 58.4922C12.2327 59.1758 12.3467 59.7048 12.3467 60.0791C12.3467 60.7952 12.0781 61.1533 11.541 61.1533C11.0202 61.1533 10.7598 60.7952 10.7598 60.0791L11.3457 56.1729L11.3213 25.0938C11.3213 23.1732 10.7354 21.57 9.56348 20.2842L10.0518 19.7959C11.3538 20.9515 12.957 21.5293 14.8613 21.5293H43.0352C44.9395 21.5293 46.5426 20.9515 47.8447 19.7959L48.333 20.2842C47.1774 21.5863 46.5996 23.0511 46.5996 24.6787C46.5996 26.3063 46.7054 27.5677 46.917 28.4629C47.1286 29.3581 47.6006 30.2207 48.333 31.0508L47.8447 31.5391C46.9821 30.3835 45.9079 29.8057 44.6221 29.8057H26.0918C25.1803 29.8057 24.3991 29.4964 23.748 28.8779L23.2842 29.3418C23.9027 29.9928 24.2119 30.7822 24.2119 31.71C24.2119 32.6377 23.9027 33.4271 23.2842 34.0781L23.748 34.542C24.2852 34.0212 24.9281 33.6875 25.6768 33.541C26.4417 33.3945 27.3451 33.3213 28.3867 33.3213L37.6641 33.834C39.1777 33.834 40.5124 33.7038 41.668 33.4434C42.8398 33.1829 43.8408 32.654 44.6709 31.8564L45.1592 32.3447C43.9385 33.6794 43.3281 35.5267 43.3281 37.8867C43.3281 40.2467 43.8896 42.0127 45.0127 43.1846L44.5 43.6729C43.0189 42.3545 40.6263 41.6953 37.3223 41.6953L28.1914 42.208C25.9616 42.208 24.4398 41.8011 23.626 40.9873L23.1621 41.4756C23.7643 42.0941 24.0654 42.9079 24.0654 43.917Z" fill="#4660BA"/>
</svg>
