<svg width="300" height="48" viewBox="0 0 300 48" fill="none" xmlns="http://www.w3.org/2000/svg">
<g clip-path="url(#clip0_0_1238)">
<path d="M112.916 17.18L114.596 15.404V22.856L113.444 21.92H120.68V24.8H113.444L114.596 23.792V32H110.876V14.3H121.748V17.18H112.916ZM126.393 17.18L128.073 15.404V22.736L127.233 21.68H133.761V24.56H127.233L128.073 23.504V30.896L126.393 29.12H135.093V32H124.329V14.3H135.093V17.18H126.393ZM138.016 32V14.3H141.748V30.884L140.068 28.964H148.336V32H138.016ZM150.673 32V14.3H154.345V32H150.673ZM161.014 32H157.282V14.3H163.342C164.694 14.3 165.85 14.564 166.81 15.092C167.778 15.612 168.514 16.32 169.018 17.216C169.53 18.104 169.786 19.108 169.786 20.228C169.786 21.34 169.526 22.36 169.006 23.288C168.494 24.208 167.758 24.948 166.798 25.508C165.838 26.06 164.686 26.336 163.342 26.336H161.014V32ZM161.014 25.184L159.334 23.456H162.946C163.57 23.456 164.114 23.332 164.578 23.084C165.042 22.828 165.402 22.46 165.658 21.98C165.914 21.492 166.042 20.908 166.042 20.228C166.042 19.54 165.914 18.972 165.658 18.524C165.41 18.068 165.054 17.732 164.59 17.516C164.134 17.292 163.586 17.18 162.946 17.18H159.334L161.014 15.404V25.184ZM174.182 17.18L175.862 15.404V22.736L175.022 21.68H181.55V24.56H175.022L175.862 23.504V30.896L174.182 29.12H182.882V32H172.118V14.3H182.882V17.18H174.182ZM205.077 25.604C205.077 27.844 204.485 29.52 203.301 30.632C202.117 31.736 200.497 32.288 198.441 32.288C196.377 32.288 194.753 31.736 193.569 30.632C192.393 29.52 191.805 27.844 191.805 25.604C191.805 25.3 191.805 24.976 191.805 24.632C191.805 24.288 191.805 23.928 191.805 23.552V14.3H195.537V24.08C195.537 24.384 195.537 24.668 195.537 24.932C195.537 25.196 195.537 25.44 195.537 25.664C195.537 26.912 195.765 27.832 196.221 28.424C196.677 29.008 197.417 29.3 198.441 29.3C199.457 29.3 200.197 29.008 200.661 28.424C201.125 27.832 201.357 26.912 201.357 25.664V14.3H205.077V25.604ZM208.024 32V14.3H215.2C217.056 14.3 218.44 14.724 219.352 15.572C220.272 16.412 220.732 17.624 220.732 19.208C220.732 20.12 220.556 20.9 220.204 21.548C219.86 22.188 219.432 22.684 218.92 23.036C218.416 23.388 217.928 23.584 217.456 23.624C217.944 23.656 218.404 23.78 218.836 23.996C219.276 24.204 219.636 24.536 219.916 24.992C220.196 25.448 220.336 26.06 220.336 26.828C220.336 27.396 220.336 27.956 220.336 28.508C220.336 29.06 220.336 29.624 220.336 30.2C220.336 30.592 220.364 30.956 220.42 31.292C220.484 31.62 220.576 31.856 220.696 32H216.964C216.86 31.84 216.776 31.6 216.712 31.28C216.648 30.952 216.616 30.592 216.616 30.2C216.616 29.688 216.616 29.2 216.616 28.736C216.616 28.264 216.616 27.772 216.616 27.26C216.616 26.564 216.436 26.028 216.076 25.652C215.716 25.268 215.14 25.076 214.348 25.076H210.676L211.672 23.888V32H208.024ZM211.672 23.552L210.676 22.196H214.396C214.876 22.196 215.304 22.088 215.68 21.872C216.056 21.656 216.352 21.348 216.568 20.948C216.792 20.548 216.904 20.08 216.904 19.544C216.904 18.792 216.676 18.208 216.22 17.792C215.772 17.376 215.14 17.168 214.324 17.168H210.592L211.672 15.956V23.552ZM230.325 14.3C231.565 14.3 232.581 14.472 233.373 14.816C234.173 15.16 234.765 15.656 235.149 16.304C235.533 16.944 235.725 17.7 235.725 18.572C235.725 19.444 235.553 20.188 235.209 20.804C234.865 21.412 234.429 21.884 233.901 22.22C233.373 22.548 232.837 22.732 232.293 22.772C232.861 22.788 233.445 22.936 234.045 23.216C234.645 23.488 235.149 23.932 235.557 24.548C235.965 25.156 236.169 25.968 236.169 26.984C236.169 27.944 235.973 28.804 235.581 29.564C235.197 30.316 234.577 30.912 233.721 31.352C232.865 31.784 231.721 32 230.289 32H223.329V14.3H230.325ZM226.893 22.496L225.657 21.452H229.185C230.129 21.452 230.837 21.252 231.309 20.852C231.781 20.444 232.017 19.896 232.017 19.208C232.017 18.744 231.917 18.364 231.717 18.068C231.517 17.764 231.221 17.54 230.829 17.396C230.437 17.252 229.953 17.18 229.377 17.18H225.213L226.893 15.404V22.496ZM229.569 29.108C230.481 29.108 231.173 28.9 231.645 28.484C232.125 28.06 232.365 27.488 232.365 26.768C232.365 26.36 232.293 26.004 232.149 25.7C232.013 25.396 231.817 25.144 231.561 24.944C231.305 24.736 230.993 24.58 230.625 24.476C230.265 24.364 229.865 24.308 229.425 24.308H225.657L226.893 23.276V30.884L225.213 29.108H229.569ZM237.15 32L241.566 14.276H247.458L251.85 32H248.034L244.506 16.544H244.53L240.966 32H237.15ZM240.318 27.896V24.992H248.718V27.896H240.318ZM257.551 32H253.915V14.3H259.699L265.627 30.656L265.003 30.812V14.3H268.627V32H262.807L256.879 15.692L257.551 15.536V32ZM273.627 17.18L275.307 15.404V22.736L274.467 21.68H280.995V24.56H274.467L275.307 23.504V30.896L273.627 29.12H282.327V32H271.563V14.3H282.327V17.18H273.627ZM291.863 23.408L291.971 20.564L299.051 32H294.971L289.895 23.42L291.563 23.636L288.659 27.536L288.983 25.196V32H285.251V14.3H288.983V23.492L288.287 23.108L294.755 14.3H298.691L291.863 23.408Z" fill="white"/>
<path d="M17.56 17.6457L42.5 2.90407L67.44 17.6457L58.1461 40.9164H26.8539L17.56 17.6457Z" stroke="#EF6D58" stroke-width="5"/>
<path d="M41.4706 14L57.4148 20.5643L51.3247 31.1857H31.6166L25.5265 20.5643L41.4706 14Z" fill="#EF6D58"/>
</g>
<defs>
<clipPath id="clip0_0_1238">
<rect width="300" height="48" fill="white"/>
</clipPath>
</defs>
</svg>
