<svg width="289" height="41" viewBox="0 0 289 41" fill="none" xmlns="http://www.w3.org/2000/svg">
<path d="M0 0L20.4492 34.4558L112.207 39L204.551 34.4558L225 0H0Z" fill="#EF587A"/>
<path d="M52.8438 37.5625H52.25C50.2188 37.5625 48.9635 36.6615 48.4844 34.8594C48.1094 33.4427 47.8438 30 47.6875 24.5312L46.6875 25.5156C46.7292 25.7448 46.75 25.9531 46.75 26.1406C46.7292 26.276 46.6458 26.3438 46.5 26.3438C46.2188 26.3438 45.8906 26.1094 45.5156 25.6406C45.2135 25.276 45.0625 24.9167 45.0625 24.5625C45.0625 23.6667 45.8021 22.8854 47.2812 22.2188C47.3958 22.1667 47.474 22.1354 47.5156 22.125C47.599 22.125 47.651 21.8385 47.6719 21.2656C47.8177 16.3177 48.1146 12.7917 48.5625 10.6875L47.875 10.875C45.6979 11.4375 44.2656 12.3229 43.5781 13.5312C43.4219 13.8021 43.2708 14.1719 43.125 14.6406C42.9271 15.2135 42.7969 15.526 42.7344 15.5781C42.6615 15.6198 42.599 15.6406 42.5469 15.6406C42.4115 15.6406 42.2135 15.5104 41.9531 15.25C41.5573 14.8542 41.3594 14.349 41.3594 13.7344C41.3594 12.7448 41.7448 11.8438 42.5156 11.0312C42.974 10.6354 43.2708 10.3958 43.4062 10.3125C45.4375 9.16667 48.6927 8.51042 53.1719 8.34375C54.276 8.30208 55.7917 8.25521 57.7188 8.20312C60.8021 8.13021 63.2344 7.92188 65.0156 7.57812C66.8073 7.23438 68.099 6.72917 68.8906 6.0625C69.224 5.80208 69.4219 5.5625 69.4844 5.34375C69.5156 5.22917 69.5312 5.07292 69.5312 4.875C69.5104 4.59375 69.5 4.39062 69.5 4.26562C69.5 3.82812 69.6042 3.60938 69.8125 3.60938C70.125 3.65104 70.3594 3.89583 70.5156 4.34375C70.599 4.60417 70.6406 4.94271 70.6406 5.35938C70.6094 6.74479 69.5521 7.81771 67.4688 8.57812C65.5521 9.27604 62.474 9.68229 58.2344 9.79688C55.6927 9.86979 54.375 9.92188 54.2812 9.95312L54.4688 10.3281C54.5938 10.5677 54.6562 10.8281 54.6562 11.1094C54.6562 11.7344 54.6042 12.4427 54.5 13.2344C54.1562 16.5885 53.9844 19.4115 53.9844 21.7031C53.9844 21.9427 53.9896 22.0677 54 22.0781C54.0729 22.0781 54.2344 22.099 54.4844 22.1406C55.2656 22.3073 56.0833 22.3906 56.9375 22.3906C58.7917 22.3906 60.1719 21.8073 61.0781 20.6406C61.1302 20.5885 61.1875 20.5625 61.25 20.5625C61.3854 20.5625 61.5417 20.6771 61.7188 20.9062C61.8958 21.1354 61.9844 21.3438 61.9844 21.5312C61.9844 21.6771 61.9375 21.8385 61.8438 22.0156C61.1771 23.2552 59.7917 23.875 57.6875 23.875C56.8333 23.875 56.1198 23.8385 55.5469 23.7656C54.724 23.6406 54.2135 23.5781 54.0156 23.5781C53.9948 23.5781 53.9844 23.6354 53.9844 23.75C53.9844 24 54 24.6198 54.0312 25.6094C54.1354 29.0156 54.3385 31.8125 54.6406 34C54.7031 34.4167 54.7344 34.7604 54.7344 35.0312C54.724 35.9896 54.5104 36.6979 54.0938 37.1562C53.8646 37.4271 53.4479 37.5625 52.8438 37.5625ZM69.2656 32.5156C68.0156 32.5156 66.776 32.0625 65.5469 31.1562C64.8802 30.6771 64.2448 29.8438 63.6406 28.6562C63.0469 27.4688 62.75 26.1354 62.75 24.6562C62.75 20.6771 63.6406 17.7188 65.4219 15.7812C65.9844 15.2188 66.6094 14.7188 67.2969 14.2812C67.9948 13.9479 68.6927 13.7812 69.3906 13.7812C70.2448 13.7812 71.099 14.0312 71.9531 14.5312C72.974 15.1979 73.6198 15.9271 73.8906 16.7188C73.9844 17.0208 74.0312 17.349 74.0312 17.7031C74.0312 18.1406 73.974 18.5417 73.8594 18.9062C73.0885 20.9688 71.5365 22.8177 69.2031 24.4531C69.099 24.526 69.026 24.5938 68.9844 24.6562C68.9427 24.7188 68.9219 25.2031 68.9219 26.1094C68.9219 26.651 69 27.2969 69.1562 28.0469C69.375 29.0885 69.5573 29.8542 69.7031 30.3438C69.7448 30.6354 69.8281 30.7812 69.9531 30.7812C71.0052 30.7812 72.5938 28.7552 74.7188 24.7031C75.1875 23.8073 75.4948 23.2708 75.6406 23.0938C75.724 22.9896 75.8021 22.9323 75.875 22.9219C76.5104 22.9531 76.8281 23.1094 76.8281 23.3906C76.8281 23.4323 76.6823 23.7917 76.3906 24.4688C75.8281 25.75 75.401 26.6875 75.1094 27.2812C73.8385 29.7812 72.6615 31.3542 71.5781 32C70.9427 32.3438 70.1719 32.5156 69.2656 32.5156ZM69.1875 22.6562L69.6094 22.3125C70.8385 21.2083 71.7344 19.8958 72.2969 18.375C72.4115 18.0521 72.4688 17.7083 72.4688 17.3438C72.4688 16.6875 72.349 16.2396 72.1094 16C72.0573 15.9479 72.0052 15.9219 71.9531 15.9219C71.8906 15.9323 71.7969 16.0208 71.6719 16.1875C71.4427 16.4167 71.2552 16.6771 71.1094 16.9688C70.8594 17.4479 70.5521 18.1771 70.1875 19.1562C69.8229 20.1354 69.5573 20.9583 69.3906 21.625C69.3385 21.9167 69.2917 22.1198 69.25 22.2344C69.2188 22.349 69.2031 22.4323 69.2031 22.4844C69.2031 22.5365 69.1927 22.5833 69.1719 22.625C69.1719 22.6458 69.1771 22.6562 69.1875 22.6562ZM82.8594 35.5C81.276 35.5 79.8125 35.0417 78.4688 34.125C77.3021 33.3333 76.5 32.2656 76.0625 30.9219C75.6354 29.5677 75.4219 27.7969 75.4219 25.6094C75.6198 20.0677 76.5156 15.724 78.1094 12.5781C78.6927 11.3177 79.3906 10.4375 80.2031 9.9375C81.5677 9.07292 82.9323 8.64062 84.2969 8.64062C85.224 8.64062 86.0677 8.85417 86.8281 9.28125C88.099 9.875 88.7344 11.026 88.7344 12.7344C88.7344 13.5365 88.5781 14.4219 88.2656 15.3906C86.9948 19.3802 85.4479 22.2865 83.625 24.1094C82.8021 24.9219 82.125 25.5052 81.5938 25.8594C81.6458 28.0365 81.7917 29.6875 82.0312 30.8125C82.1875 31.4688 82.4062 32.125 82.6875 32.7812C82.8125 33.0729 82.8906 33.2188 82.9219 33.2188C83.0469 33.2188 83.3021 33.0677 83.6875 32.7656C84.2708 32.3177 84.9271 31.5469 85.6562 30.4531C86.6771 28.8073 87.5052 27.0156 88.1406 25.0781C88.5781 23.6823 88.8073 22.9271 88.8281 22.8125C88.8385 22.7708 88.901 22.75 89.0156 22.75C89.1406 22.75 89.3125 22.7708 89.5312 22.8125C89.8125 22.875 90.026 22.9219 90.1719 22.9531C90.3281 22.9844 90.4219 23.0156 90.4531 23.0469C90.4844 23.0781 90.5 23.125 90.5 23.1875C90.3646 23.8125 89.9323 25.1823 89.2031 27.2969C88.9219 28.0885 88.4323 29.1875 87.7344 30.5938C87.2448 31.5312 86.7604 32.3646 86.2812 33.0938C85.2604 34.6979 84.1198 35.5 82.8594 35.5ZM81.8125 23.1562C81.8229 23.1562 81.8854 23.099 82 22.9844C82.125 22.8594 82.2865 22.6927 82.4844 22.4844C82.6823 22.2656 82.8646 22.0469 83.0312 21.8281C85.5 17.776 86.7344 14.6771 86.7344 12.5312C86.7344 12.2604 86.7188 11.9844 86.6875 11.7031C86.6562 11.4115 86.6146 11.1719 86.5625 10.9844C86.5104 10.7969 86.4635 10.7031 86.4219 10.7031C86.349 10.7031 86.1458 10.8854 85.8125 11.25C85.5938 11.4896 85.2865 12.0365 84.8906 12.8906C84.6823 13.474 84.3698 14.224 83.9531 15.1406C83.151 17.0573 82.526 19.1667 82.0781 21.4688C81.901 22.375 81.8125 22.9375 81.8125 23.1562ZM94.6094 34.6875C93.5052 34.6875 92.3802 34.3542 91.2344 33.6875C90.3385 33.1458 89.6406 32.4688 89.1406 31.6562C88.5677 30.6771 88.2812 29.1562 88.2812 27.0938C88.2812 25.0208 88.6302 22.7083 89.3281 20.1562C89.6198 19.0312 89.9271 18.3229 90.25 18.0312C90.5833 17.7396 91.1823 17.5938 92.0469 17.5938C92.6302 17.5938 93.0781 17.6458 93.3906 17.75C94.9427 18.1875 95.7188 18.9062 95.7188 19.9062C95.7188 20.4688 95.5677 21.375 95.2656 22.625C94.776 24.8542 94.5312 26.7604 94.5312 28.3438C94.5312 28.7812 94.5677 29.4375 94.6406 30.3125C94.724 31.3646 94.8177 32.0417 94.9219 32.3438C94.9427 32.3438 95.1094 32.2396 95.4219 32.0312C96.9427 30.9062 98.4375 27.901 99.9062 23.0156C99.9583 22.8281 100.052 22.7344 100.188 22.7344C100.312 22.7344 100.557 22.776 100.922 22.8594C101.245 22.9427 101.406 23.0521 101.406 23.1875C101.073 25.0104 100.359 27.2708 99.2656 29.9688C98.8177 31 98.401 31.8021 98.0156 32.375C96.974 33.9062 95.8385 34.6771 94.6094 34.6875ZM95.2031 16.4219C94.349 16.4219 93.5885 16.1875 92.9219 15.7188C92.2552 15.2396 91.9219 14.7812 91.9219 14.3438C91.9219 14.2812 91.9583 14.2031 92.0312 14.1094C92.1042 14.0156 92.2448 13.9271 92.4531 13.8438C92.6615 13.7604 92.8906 13.7083 93.1406 13.6875C94.5052 13.6875 95.4844 14.2188 96.0781 15.2812C96.1823 15.4896 96.2344 15.6719 96.2344 15.8281C96.2344 16.224 95.8906 16.4219 95.2031 16.4219ZM105.125 38.8125C104.219 38.8125 103.292 38.5521 102.344 38.0312C101.615 37.6354 101.135 37.1875 100.906 36.6875C100.635 35.9583 100.37 34.4375 100.109 32.125C99.849 29.8125 99.7188 27.6771 99.7188 25.7188C99.7188 24.1354 99.8073 22.1719 99.9844 19.8281C100.307 15.599 100.667 13.2552 101.062 12.7969C101.281 12.5469 101.771 12.4219 102.531 12.4219C103.344 12.4219 104.177 12.6458 105.031 13.0938C106.062 13.6562 106.589 14.3125 106.609 15.0625V15.2656C106.609 15.5677 106.594 15.9583 106.562 16.4375L106.578 17.0156C106.63 16.9635 106.703 16.8594 106.797 16.7031C107.495 15.5365 108.177 14.7917 108.844 14.4688C109.208 14.2917 109.583 14.2031 109.969 14.2031C110.99 14.2031 112.094 14.8073 113.281 16.0156C114.469 17.2135 115.172 18.349 115.391 19.4219C115.62 20.4948 115.734 21.3021 115.734 21.8438C115.734 23.7812 115.062 25.4583 113.719 26.875C112.26 28.3333 110.766 29.0625 109.234 29.0625C108.578 29.0625 108.042 29.026 107.625 28.9531C107.427 28.9115 106.911 28.75 106.078 28.4688L105.906 28.4375C105.906 28.8542 105.932 29.4531 105.984 30.2344C106.224 33.0469 106.51 35.2292 106.844 36.7812C106.938 37.2292 106.984 37.5521 106.984 37.75C106.984 37.9167 106.958 38.0521 106.906 38.1562C106.562 38.5938 105.969 38.8125 105.125 38.8125ZM106 26.9219C106.354 26.8698 106.604 26.8125 106.75 26.75C108.062 26.125 109.135 24.8229 109.969 22.8438C110.417 21.7292 110.74 20.375 110.938 18.7812L110.953 18.2656C110.953 17.651 110.911 17.0938 110.828 16.5938C110.776 16.2812 110.719 16.125 110.656 16.125C110.406 16.125 110.042 16.3646 109.562 16.8438C108.729 17.6562 107.771 19.2083 106.688 21.5L106.031 22.9062L105.891 26.375C105.891 26.7396 105.927 26.9219 106 26.9219ZM123.641 32.5156C122.391 32.5156 121.151 32.0625 119.922 31.1562C119.255 30.6771 118.62 29.8438 118.016 28.6562C117.422 27.4688 117.125 26.1354 117.125 24.6562C117.125 20.6771 118.016 17.7188 119.797 15.7812C120.359 15.2188 120.984 14.7188 121.672 14.2812C122.37 13.9479 123.068 13.7812 123.766 13.7812C124.62 13.7812 125.474 14.0312 126.328 14.5312C127.349 15.1979 127.995 15.9271 128.266 16.7188C128.359 17.0208 128.406 17.349 128.406 17.7031C128.406 18.1406 128.349 18.5417 128.234 18.9062C127.464 20.9688 125.911 22.8177 123.578 24.4531C123.474 24.526 123.401 24.5938 123.359 24.6562C123.318 24.7188 123.297 25.2031 123.297 26.1094C123.297 26.651 123.375 27.2969 123.531 28.0469C123.75 29.0885 123.932 29.8542 124.078 30.3438C124.12 30.6354 124.203 30.7812 124.328 30.7812C125.38 30.7812 126.969 28.7552 129.094 24.7031C129.562 23.8073 129.87 23.2708 130.016 23.0938C130.099 22.9896 130.177 22.9323 130.25 22.9219C130.885 22.9531 131.203 23.1094 131.203 23.3906C131.203 23.4323 131.057 23.7917 130.766 24.4688C130.203 25.75 129.776 26.6875 129.484 27.2812C128.214 29.7812 127.036 31.3542 125.953 32C125.318 32.3438 124.547 32.5156 123.641 32.5156ZM123.562 22.6562L123.984 22.3125C125.214 21.2083 126.109 19.8958 126.672 18.375C126.786 18.0521 126.844 17.7083 126.844 17.3438C126.844 16.6875 126.724 16.2396 126.484 16C126.432 15.9479 126.38 15.9219 126.328 15.9219C126.266 15.9323 126.172 16.0208 126.047 16.1875C125.818 16.4167 125.63 16.6771 125.484 16.9688C125.234 17.4479 124.927 18.1771 124.562 19.1562C124.198 20.1354 123.932 20.9583 123.766 21.625C123.714 21.9167 123.667 22.1198 123.625 22.2344C123.594 22.349 123.578 22.4323 123.578 22.4844C123.578 22.5365 123.568 22.5833 123.547 22.625C123.547 22.6458 123.552 22.6562 123.562 22.6562ZM161.656 40.1719C160.792 40.1719 159.901 39.9115 158.984 39.3906C156.818 38.0885 155.609 35.9427 155.359 32.9531C155.297 32.2656 155.266 31.276 155.266 29.9844C155.266 28.2344 155.583 25.6458 156.219 22.2188C156.323 21.6562 156.375 21.3229 156.375 21.2188L156.125 21.8281C152.677 30.2865 150.146 34.9115 148.531 35.7031C148.229 35.8385 147.88 35.9062 147.484 35.9062C147.016 35.9062 146.479 35.8125 145.875 35.625C143.396 34.7708 141.849 33.2031 141.234 30.9219C140.87 29.5469 140.688 27.849 140.688 25.8281C140.688 22.2969 141.276 18.6927 142.453 15.0156C143.036 13.2135 143.526 12.0677 143.922 11.5781C144.151 11.3073 144.432 11.1354 144.766 11.0625C144.943 11.0312 145.151 11.0156 145.391 11.0156C146.005 11.0156 146.625 11.1354 147.25 11.375C147.875 11.6146 148.411 11.9479 148.859 12.375C149.245 12.7188 149.438 13.0677 149.438 13.4219C149.438 13.7865 149.245 14.5833 148.859 15.8125C148.297 17.6458 147.885 19.1406 147.625 20.2969C147.042 22.8281 146.75 25.2865 146.75 27.6719C146.75 29.1094 146.88 30.4792 147.141 31.7812C147.203 32.2292 147.276 32.4531 147.359 32.4531C147.453 32.4531 147.672 32.2708 148.016 31.9062L148.234 31.6875C150.672 29.2917 153.203 24.7188 155.828 17.9688C156.724 15.6771 157.531 13.75 158.25 12.1875C158.625 11.3542 158.88 10.6562 159.016 10.0938C159.193 9.4375 159.37 8.96354 159.547 8.67188C159.859 8.14062 160.328 7.875 160.953 7.875C161.797 7.875 162.573 8.15625 163.281 8.71875C164.24 9.5 164.719 10.5365 164.719 11.8281C164.719 12.3802 164.651 13.0417 164.516 13.8125C164.38 14.5729 164.12 15.7396 163.734 17.3125C163.172 19.6146 162.76 21.5781 162.5 23.2031C161.885 27.0781 161.578 29.7604 161.578 31.25C161.578 32.625 161.641 33.9375 161.766 35.1875C161.891 36.4479 162.005 37.2969 162.109 37.7344C162.234 38.276 162.312 38.5469 162.344 38.5469C162.365 38.5469 162.438 38.4948 162.562 38.3906C162.688 38.2865 162.906 38.2344 163.219 38.2344C163.479 38.2344 163.724 38.276 163.953 38.3594C164.266 38.474 164.422 38.6094 164.422 38.7656C164.422 38.8281 164.396 38.9167 164.344 39.0312C164.167 39.4896 163.667 39.8177 162.844 40.0156C162.448 40.1198 162.052 40.1719 161.656 40.1719ZM176.688 36.8594C176.021 36.8594 175.26 36.6615 174.406 36.2656C173.417 35.8073 172.75 35.3177 172.406 34.7969C171.812 33.9115 171.432 33.0156 171.266 32.1094C171.151 31.4844 171.094 30.6562 171.094 29.625L171.109 27.3906C171.13 26.5573 171.271 25.2604 171.531 23.5C171.958 20.3958 172.172 18.2604 172.172 17.0938L172.125 15.1875L169.469 14.0938C169.396 14.5729 169.26 15.3438 169.062 16.4062C168.104 20.7917 167.5 23.1667 167.25 23.5312C167.01 23.8958 166.797 24.0781 166.609 24.0781C166.422 24.0781 166.224 24.026 166.016 23.9219C165.818 23.8177 165.698 23.7344 165.656 23.6719C165.615 23.599 165.594 23.5208 165.594 23.4375L165.609 23.2812C166.932 17.25 167.594 13.8333 167.594 13.0312C167.594 12.9062 167.552 12.8021 167.469 12.7188V12.6875C167.115 12.2708 166.938 11.8125 166.938 11.3125C166.938 10.8125 167.115 10.4271 167.469 10.1562C167.656 10.0104 167.906 9.9375 168.219 9.9375C168.812 9.9375 169.354 10.0833 169.844 10.375C170.208 10.6146 170.542 11.0729 170.844 11.75C171.052 12.2083 171.219 12.5 171.344 12.625C171.562 12.8021 172.271 13.1146 173.469 13.5625C175.052 14.1042 176.26 14.8021 177.094 15.6562C177.552 16.0938 177.87 16.5833 178.047 17.125C178.224 17.6667 178.312 18.3854 178.312 19.2812C178.312 20.0729 178.135 21.8854 177.781 24.7188C177.49 26.8125 177.323 28.25 177.281 29.0312C177.26 29.4479 177.25 29.9271 177.25 30.4688C177.25 30.9479 177.266 31.4531 177.297 31.9844C177.328 32.5156 177.37 32.9792 177.422 33.375C177.474 33.7708 177.521 33.9688 177.562 33.9688L178.109 33.25C178.734 32.3854 179.719 30.2083 181.062 26.7188C181.552 25.3542 181.849 24.5104 181.953 24.1875C182.068 23.8646 182.167 23.599 182.25 23.3906C182.333 23.1823 182.422 23.0729 182.516 23.0625C182.609 23.0417 182.724 23.0417 182.859 23.0625C183.078 23.1042 183.375 23.1823 183.75 23.2969C183.917 23.349 183.99 23.4323 183.969 23.5469C183.896 24.3281 183.354 26.1667 182.344 29.0625C180.698 33.8333 179.229 36.3958 177.938 36.75C177.771 36.7917 177.354 36.8281 176.688 36.8594ZM192.594 38.4062C191.656 38.4062 190.76 38.2083 189.906 37.8125C188.323 37.0521 187.531 35.7812 187.531 34L187.125 33.9375C186.375 33.875 185.615 33.5885 184.844 33.0781C184.083 32.5677 183.469 31.7708 183 30.6875C182.646 29.9167 182.401 29.1406 182.266 28.3594C182.13 27.5781 182.062 26.5938 182.062 25.4062C182.083 23.3646 182.312 21.1875 182.75 18.875C183.521 14.7812 184.672 11.7135 186.203 9.67188C187.141 8.42188 188.078 7.68229 189.016 7.45312C189.328 7.38021 189.755 7.34375 190.297 7.34375C191.359 7.34375 192.385 7.71875 193.375 8.46875C194.375 9.21875 194.875 9.98958 194.875 10.7812L194.891 11.0938C194.891 11.5312 194.76 12.1354 194.5 12.9062C193.979 14.4688 193.062 16.0521 191.75 17.6562C190.625 19.0208 189.625 20.0312 188.75 20.6875C188.552 21.7708 188.417 22.75 188.344 23.625C188.271 24.5 188.198 25.3854 188.125 26.2812L188.5 25.3438C189.448 22.8021 190.391 21.0104 191.328 19.9688C191.911 19.3229 192.406 18.8542 192.812 18.5625C193.052 18.4167 193.333 18.3438 193.656 18.3438C194.146 18.3438 194.729 18.5104 195.406 18.8438C197.062 19.6562 198.266 21.4948 199.016 24.3594L199.469 26.5938C200.531 25.9375 201.38 24.8021 202.016 23.1875C202.078 23.0625 202.172 23 202.297 23C202.484 23 202.792 23.0312 203.219 23.0938C203.562 23.1458 203.734 23.2448 203.734 23.3906C203.578 24.0469 203.245 24.8281 202.734 25.7344C201.943 27.0156 200.885 28.0312 199.562 28.7812C199.438 30.0625 199.219 31.1458 198.906 32.0312C198.5 33.2917 197.906 34.5625 197.125 35.8438C196.354 36.9271 195.312 37.7083 194 38.1875C193.677 38.2917 193.208 38.3646 192.594 38.4062ZM190.75 36.75C190.917 36.75 191.104 36.6979 191.312 36.5938C191.99 36.2188 192.547 35.5312 192.984 34.5312C193.109 34.2396 193.266 33.7135 193.453 32.9531C193.651 32.1927 193.75 31.6562 193.75 31.3438C193.75 31.3021 193.724 31.2812 193.672 31.2812C193.651 31.2812 193.615 31.2865 193.562 31.2969C193.521 31.3073 193.438 31.3333 193.312 31.375C193.188 31.4167 193.021 31.4688 192.812 31.5312C192.271 31.6875 191.76 31.9271 191.281 32.25C190.469 32.7917 189.99 33.4271 189.844 34.1562C189.781 34.4479 189.75 34.7188 189.75 34.9688C189.75 35.5625 189.917 36.0625 190.25 36.4688C190.406 36.6562 190.573 36.75 190.75 36.75ZM189.219 31.2656C189.25 31.2656 189.312 31.2292 189.406 31.1562C189.906 30.7917 191.01 30.3542 192.719 29.8438C193.51 29.5938 193.922 29.4531 193.953 29.4219C194.016 29.3594 194.073 27.8021 194.125 24.75C194.125 22 194.042 20.625 193.875 20.625C193.802 20.625 193.474 20.9427 192.891 21.5781C192.318 22.2135 191.714 23.2708 191.078 24.75C190.453 26.2292 189.917 27.9271 189.469 29.8438C189.333 30.6146 189.24 31.0677 189.188 31.2031C189.188 31.2448 189.198 31.2656 189.219 31.2656ZM189.562 17.4062C189.646 17.3646 189.839 17.1562 190.141 16.7812C191.026 15.7188 191.745 14.625 192.297 13.5C192.828 12.4271 193.125 11.4583 193.188 10.5938L192.875 11.0156C192.406 11.7865 191.979 12.4375 191.594 12.9688C191.094 13.75 190.75 14.3438 190.562 14.75C190.25 15.375 189.917 16.2188 189.562 17.2812V17.4062ZM217.234 38.375C216.755 38.375 216.234 38.2812 215.672 38.0938C212.984 37.2604 211.307 34.7604 210.641 30.5938C210.568 30.1979 210.516 29.3646 210.484 28.0938L210.203 28.5312C209.391 29.8438 208.641 30.6146 207.953 30.8438C207.703 30.9271 207.417 30.9688 207.094 30.9688C206.448 30.9688 205.786 30.8125 205.109 30.5C202.974 29.4688 201.906 27.599 201.906 24.8906C201.906 23.3073 202.182 21.8646 202.734 20.5625C203.62 18.4479 204.786 17.1562 206.234 16.6875C206.578 16.5625 206.948 16.5 207.344 16.5C208.438 16.5 209.625 16.9062 210.906 17.7188C211.167 17.8854 211.432 18.0885 211.703 18.3281C211.974 18.5677 212.13 18.6875 212.172 18.6875L212.422 18.0312C212.464 17.8438 212.63 17.3854 212.922 16.6562C213.63 14.8854 214.589 14 215.797 14C216.141 14 216.505 14.0729 216.891 14.2188C218.318 14.6979 219.031 15.625 219.031 17C219.031 17.5104 218.943 18.0833 218.766 18.7188C217.911 21.7188 217.344 24.0781 217.062 25.7969C216.792 27.5052 216.656 29.4375 216.656 31.5938C216.656 32.7083 216.661 33.5 216.672 33.9688C216.693 34.4375 216.797 35.0573 216.984 35.8281C217.047 36.0885 217.099 36.2188 217.141 36.2188C217.224 36.2188 217.484 36.0365 217.922 35.6719C219.63 34.0573 221.276 30.3802 222.859 24.6406C223.109 23.6615 223.271 23.1562 223.344 23.125C223.427 23.0938 223.62 23.0781 223.922 23.0781C224.63 23.0781 224.984 23.1615 224.984 23.3281C224.984 23.6615 224.688 24.8854 224.094 27C223.021 31.1771 221.703 34.3646 220.141 36.5625C219.297 37.7708 218.328 38.375 217.234 38.375ZM207.375 28.9688C208.125 28.4375 209.073 27.3594 210.219 25.7344C210.573 25.2552 210.76 24.901 210.781 24.6719C210.906 23.7865 211.219 22.3125 211.719 20.25C211.521 19.8125 211.375 19.5312 211.281 19.4062C210.979 19.0208 210.594 18.6875 210.125 18.4062C209.885 18.2604 209.703 18.1875 209.578 18.1875C209.339 18.1875 209.094 18.651 208.844 19.5781C208.562 20.6406 208.302 21.75 208.062 22.9062C207.885 23.7396 207.724 24.7396 207.578 25.9062C207.443 27.0729 207.375 28.0938 207.375 28.9688ZM241.062 37.8906C240.521 37.8906 239.948 37.7292 239.344 37.4062C238.99 37.2396 238.625 36.9792 238.25 36.625C236.917 35.5208 236.021 33.9896 235.562 32.0312C235.375 31.3229 235.281 30.5625 235.281 29.75C235.281 29 235.531 26.4271 236.031 22.0312C236.177 20.4271 236.25 19.0104 236.25 17.7812C236.25 16.9479 236.229 16.2396 236.188 15.6562C235.01 16.9583 234.031 18.7083 233.25 20.9062C232.75 22.4062 232.198 24.3646 231.594 26.7812C231.135 28.5521 230.76 29.7188 230.469 30.2812C230.219 30.6979 229.75 30.9062 229.062 30.9062C227.688 30.9062 226.396 30.4062 225.188 29.4062C224.458 28.8021 223.938 28.1354 223.625 27.4062C223.24 26.4062 223.021 25.0729 222.969 23.4062C222.969 21.8646 222.979 20.8333 223 20.3125C223.062 19.625 223.156 19.125 223.281 18.8125C223.448 18.4062 223.719 18.1562 224.094 18.0625C224.26 18.0208 224.573 18 225.031 18C225.656 18 226.156 18.0625 226.531 18.1875C228.073 18.6979 228.938 19.3229 229.125 20.0625C229.146 20.1667 229.156 20.6146 229.156 21.4062C229.156 22.4271 229.167 23.2188 229.188 23.7812C229.271 25.4479 229.365 26.3333 229.469 26.4375C229.531 26.3542 230 24.8229 230.875 21.8438C231.479 19.8854 232.115 18.3125 232.781 17.125C233.281 16.2708 233.797 15.5208 234.328 14.875C234.859 14.2292 235.323 13.8177 235.719 13.6406C236.115 13.4635 236.562 13.375 237.062 13.375C238.229 13.375 239.344 13.7188 240.406 14.4062C241.125 14.8854 241.615 15.4062 241.875 15.9688C242.292 16.6771 242.5 17.4271 242.5 18.2188C242.5 20.6146 242.255 23.9688 241.766 28.2812C241.609 29.7812 241.51 30.7656 241.469 31.2344C241.427 31.7031 241.375 32.125 241.312 32.5C241.188 33.9375 241.125 34.9479 241.125 35.5312C241.125 35.8646 241.193 36.0312 241.328 36.0312C241.391 36.0312 241.469 36 241.562 35.9375C242.406 35.0104 243.25 33.4271 244.094 31.1875C244.552 29.9062 244.917 28.776 245.188 27.7969C246.156 24.3073 246.656 22.5312 246.688 22.4688C246.729 22.4062 246.812 22.375 246.938 22.375C247.271 22.375 247.651 22.4583 248.078 22.625C248.172 22.75 248.219 22.8958 248.219 23.0625C248.219 23.2188 248.193 23.4062 248.141 23.625C247.12 28.75 245.99 32.4167 244.75 34.625C243.792 36.4167 242.896 37.4688 242.062 37.7812C241.917 37.8229 241.583 37.8594 241.062 37.8906ZM252.859 32.5156C251.609 32.5156 250.37 32.0625 249.141 31.1562C248.474 30.6771 247.839 29.8438 247.234 28.6562C246.641 27.4688 246.344 26.1354 246.344 24.6562C246.344 20.6771 247.234 17.7188 249.016 15.7812C249.578 15.2188 250.203 14.7188 250.891 14.2812C251.589 13.9479 252.286 13.7812 252.984 13.7812C253.839 13.7812 254.693 14.0312 255.547 14.5312C256.568 15.1979 257.214 15.9271 257.484 16.7188C257.578 17.0208 257.625 17.349 257.625 17.7031C257.625 18.1406 257.568 18.5417 257.453 18.9062C256.682 20.9688 255.13 22.8177 252.797 24.4531C252.693 24.526 252.62 24.5938 252.578 24.6562C252.536 24.7188 252.516 25.2031 252.516 26.1094C252.516 26.651 252.594 27.2969 252.75 28.0469C252.969 29.0885 253.151 29.8542 253.297 30.3438C253.339 30.6354 253.422 30.7812 253.547 30.7812C254.599 30.7812 256.188 28.7552 258.312 24.7031C258.781 23.8073 259.089 23.2708 259.234 23.0938C259.318 22.9896 259.396 22.9323 259.469 22.9219C260.104 22.9531 260.422 23.1094 260.422 23.3906C260.422 23.4323 260.276 23.7917 259.984 24.4688C259.422 25.75 258.995 26.6875 258.703 27.2812C257.432 29.7812 256.255 31.3542 255.172 32C254.536 32.3438 253.766 32.5156 252.859 32.5156ZM252.781 22.6562L253.203 22.3125C254.432 21.2083 255.328 19.8958 255.891 18.375C256.005 18.0521 256.062 17.7083 256.062 17.3438C256.062 16.6875 255.943 16.2396 255.703 16C255.651 15.9479 255.599 15.9219 255.547 15.9219C255.484 15.9323 255.391 16.0208 255.266 16.1875C255.036 16.4167 254.849 16.6771 254.703 16.9688C254.453 17.4479 254.146 18.1771 253.781 19.1562C253.417 20.1354 253.151 20.9583 252.984 21.625C252.932 21.9167 252.885 22.1198 252.844 22.2344C252.812 22.349 252.797 22.4323 252.797 22.4844C252.797 22.5365 252.786 22.5833 252.766 22.625C252.766 22.6458 252.771 22.6562 252.781 22.6562ZM263.672 35.3281C263.026 35.3281 262.156 35.0469 261.062 34.4844C260.031 33.8802 259.406 32.8073 259.188 31.2656C259.042 30.1927 258.969 28.9635 258.969 27.5781C258.969 24.026 259.307 20.776 259.984 17.8281C260.661 14.6198 261.604 12.1562 262.812 10.4375C263.01 10.1562 263.24 9.89583 263.5 9.65625C264.677 8.53125 266.12 7.96875 267.828 7.96875C269.089 7.96875 270.182 8.34375 271.109 9.09375C271.547 9.4375 271.859 9.8125 272.047 10.2188C272.172 10.4062 272.245 10.7344 272.266 11.2031C272.245 11.6406 272.208 12 272.156 12.2812C272 13.0521 271.656 13.9375 271.125 14.9375C270.281 16.5417 269.234 17.9271 267.984 19.0938C267.349 19.6979 266.609 20.3177 265.766 20.9531C265.443 23.3073 265.271 24.7135 265.25 25.1719C266.625 24.3385 267.609 23.5156 268.203 22.7031C268.964 21.6823 269.646 20.2812 270.25 18.5C270.406 17.9896 270.625 17.7344 270.906 17.7344C271.333 17.7344 271.771 17.9062 272.219 18.25C272.76 18.6667 273.031 19.1979 273.031 19.8438C273.031 20.5 272.99 20.9479 272.906 21.1875C272.677 21.9167 272.135 22.8073 271.281 23.8594C270.385 24.9844 269.255 25.8438 267.891 26.4375C267.38 26.6667 266.854 26.8125 266.312 26.875C267.917 28.2917 269.474 29 270.984 29C272.609 29 274.276 28.0625 275.984 26.1875C276.036 26.1354 276.083 26.1094 276.125 26.1094C276.292 26.1094 276.443 26.25 276.578 26.5312C276.661 26.6979 276.703 26.8646 276.703 27.0312C276.693 27.2396 276.432 27.6458 275.922 28.25C275.203 29.0833 274.396 29.724 273.5 30.1719C272.75 30.5781 271.948 30.7812 271.094 30.7812C269.677 30.7812 268.255 30.276 266.828 29.2656C266.568 29.0677 266.031 28.5781 265.219 27.7969C265.24 29.4531 265.401 31.0677 265.703 32.6406C265.734 32.8177 265.75 32.9948 265.75 33.1719C265.75 33.8073 265.63 34.2396 265.391 34.4688C264.964 34.9271 264.604 35.1927 264.312 35.2656C264.104 35.3073 263.891 35.3281 263.672 35.3281ZM266.375 18.375C266.438 18.375 266.672 18.1719 267.078 17.7656C268.911 15.8698 270.052 14.0208 270.5 12.2188C270.667 11.5208 270.75 11.0208 270.75 10.7188C270.75 10.0938 270.604 9.78125 270.312 9.78125C269.99 9.78125 269.63 10.0885 269.234 10.7031C269.005 11.0469 268.62 11.9219 268.078 13.3281C267.547 14.6406 267.208 15.5208 267.062 15.9688C266.615 17.3333 266.385 18.1354 266.375 18.375Z" fill="white"/>
</svg>
